<?xml version="1.0" encoding="utf-8"?>
<!-- Generator: Adobe Illustrator 16.0.0, SVG Export Plug-In . SVG Version: 6.00 Build 0)  -->
<!DOCTYPE svg PUBLIC "-//W3C//DTD SVG 1.1//EN" "http://www.w3.org/Graphics/SVG/1.1/DTD/svg11.dtd">
<svg version="1.1"
	 id="svg2" xmlns:inkscape="http://www.inkscape.org/namespaces/inkscape" xmlns:sodipodi="http://sodipodi.sourceforge.net/DTD/sodipodi-0.dtd" xmlns:svg="http://www.w3.org/2000/svg" xmlns:rdf="http://www.w3.org/1999/02/22-rdf-syntax-ns#" xmlns:cc="http://creativecommons.org/ns#" xmlns:dc="http://purl.org/dc/elements/1.1/" inkscape:version="0.48.5 r10040" sodipodi:docname="ic_format_color_fill_black_48px (1).svg"
	 xmlns="http://www.w3.org/2000/svg" xmlns:xlink="http://www.w3.org/1999/xlink" x="0px" y="0px" width="48px" height="48px"
	 viewBox="0 0 48 48" enable-background="new 0 0 48 48" xml:space="preserve">
<sodipodi:namedview  id="namedview10" borderopacity="1" pagecolor="#ffffff" bordercolor="#666666" objecttolerance="10" gridtolerance="10" guidetolerance="10" showgrid="false" inkscape:zoom="4.9166667" inkscape:cx="24" inkscape:cy="24" inkscape:current-layer="svg2" inkscape:window-maximized="1" inkscape:window-y="-8" inkscape:window-x="-8" inkscape:window-height="705" inkscape:window-width="1360" inkscape:pageshadow="2" inkscape:pageopacity="0">
	</sodipodi:namedview>
<path id="path4" fill="none" d="M0,0h48v48H0V0z"/>
<path id="path6" fill="#757575" d="M33.12,17.88L15.24,0l-2.82,2.82l4.76,4.76l-10.3,10.3c-1.18,1.18-1.18,3.08,0,4.24l11,11
	C18.46,33.7,19.24,34,20,34s1.54-0.3,2.12-0.88l11-11C34.3,20.96,34.3,19.06,33.12,17.88z M10.42,20L20,10.42L29.58,20H10.42z
	 M38,23c0,0-4,4.34-4,7c0,2.2,1.8,4,4,4s4-1.8,4-4C42,27.34,38,23,38,23z"/>
<path id="path8" fill="#757575" d="M0,40h48v8H0V40z"/>
</svg>
