<?xml version="1.0" encoding="UTF-8" standalone="no"?>
<!-- Generated by IcoMoon.io -->

<svg
   xmlns:dc="http://purl.org/dc/elements/1.1/"
   xmlns:cc="http://creativecommons.org/ns#"
   xmlns:rdf="http://www.w3.org/1999/02/22-rdf-syntax-ns#"
   xmlns:svg="http://www.w3.org/2000/svg"
   xmlns="http://www.w3.org/2000/svg"
   xmlns:sodipodi="http://sodipodi.sourceforge.net/DTD/sodipodi-0.dtd"
   xmlns:inkscape="http://www.inkscape.org/namespaces/inkscape"
   version="1.1"
   width="100"
   height="100"
   viewBox="0 0 100 100"
   id="svg2"
   inkscape:version="0.48.5 r10040"
   sodipodi:docname="book.svg">
  <metadata
     id="metadata12">
    <rdf:RDF>
      <cc:Work
         rdf:about="">
        <dc:format>image/svg+xml</dc:format>
        <dc:type
           rdf:resource="http://purl.org/dc/dcmitype/StillImage" />
      </cc:Work>
    </rdf:RDF>
  </metadata>
  <defs
     id="defs10" />
  <sodipodi:namedview
     pagecolor="#ffffff"
     bordercolor="#666666"
     borderopacity="1"
     objecttolerance="10"
     gridtolerance="10"
     guidetolerance="10"
     inkscape:pageopacity="0"
     inkscape:pageshadow="2"
     inkscape:window-width="1360"
     inkscape:window-height="705"
     id="namedview8"
     showgrid="false"
     inkscape:zoom="2.6074563"
     inkscape:cx="-70.331811"
     inkscape:cy="33.010962"
     inkscape:window-x="-8"
     inkscape:window-y="-8"
     inkscape:window-maximized="1"
     inkscape:current-layer="svg2" />
  <path
     d="M 89.472062,14.712366 V 92.127418 H 21.299651 c -5.379128,0 -9.738916,-3.998785 -9.738916,-8.932506 0,-4.933721 4.359788,-8.932506 9.738916,-8.932506 H 82.979452 V 2.8023579 H 18.053345 c -7.141871,0 -12.9852207,5.3595034 -12.9852207,11.9100081 v 71.460048 c 0,6.550504 5.8433497,11.910008 12.9852207,11.910008 H 95.964673 V 14.712366 h -6.492611 z"
     id="path4"
     inkscape:connector-curvature="0"
     style="fill:#757575;fill-opacity:1" />
  <path
     d="m 21.306143,80.21741 v 0 c -0.0032,0 -0.0032,0 -0.0065,0 -1.791961,0 -3.246306,1.333921 -3.246306,2.977502 0,1.643581 1.454345,2.977502 3.246306,2.977502 0.0032,0 0.0032,0 0.0065,0 v 0 H 82.976205 V 80.21741 H 21.306143 z"
     id="path6"
     inkscape:connector-curvature="0"
     style="fill:#646464;fill-opacity:1" />
</svg>
