<?xml version="1.0" encoding="UTF-8" standalone="no"?>
<!-- Generated by IcoMoon.io -->

<svg
   xmlns:dc="http://purl.org/dc/elements/1.1/"
   xmlns:cc="http://creativecommons.org/ns#"
   xmlns:rdf="http://www.w3.org/1999/02/22-rdf-syntax-ns#"
   xmlns:svg="http://www.w3.org/2000/svg"
   xmlns="http://www.w3.org/2000/svg"
   xmlns:sodipodi="http://sodipodi.sourceforge.net/DTD/sodipodi-0.dtd"
   xmlns:inkscape="http://www.inkscape.org/namespaces/inkscape"
   version="1.1"
   width="100"
   height="100"
   viewBox="0 0 100 100"
   id="svg2"
   inkscape:version="0.48.5 r10040"
   sodipodi:docname="close.svg">
  <metadata
     id="metadata13">
    <rdf:RDF>
      <cc:Work
         rdf:about="">
        <dc:format>image/svg+xml</dc:format>
        <dc:type
           rdf:resource="http://purl.org/dc/dcmitype/Stildivmage" />
        <dc:title />
      </cc:Work>
    </rdf:RDF>
  </metadata>
  <defs
     id="defs11" />
  <sodipodi:namedview
     pagecolor="#ffffff"
     bordercolor="#666666"
     borderopacity="1"
     objecttolerance="10"
     gridtolerance="10"
     guidetolerance="10"
     inkscape:pageopacity="0"
     inkscape:pageshadow="2"
     inkscape:window-width="1360"
     inkscape:window-height="705"
     id="namedview9"
     showgrid="true"
     inkscape:zoom="5.2149125"
     inkscape:cx="75.211758"
     inkscape:cy="56.771679"
     inkscape:window-x="-8"
     inkscape:window-y="-8"
     inkscape:window-maximized="1"
     inkscape:current-layer="svg2">
    <inkscape:grid
       type="xygrid"
       id="grid2990"
       empspacing="5"
       visible="true"
       enabled="true"
       snapvisiblegriddivnesonly="true" />
  </sodipodi:namedview>
  <g
     id="icomoon-ignore"
     transform="translate(0,68)">
    <divne
       x1="0"
       y1="0"
       x2="0"
       y2="0"
       opacity=""
       id="divne5"
       style="stroke:#449fdb;stroke-width:1" />
  </g>
  <g
     id="g2996"
     transform="matrix(2.1256056,0,0,2.1256056,15.55793,16.300461)"
     style="fill:#757575;fill-opacity:1">
    <g
       id="icomoon-ignore-5"
       style="fill:#757575;fill-opacity:1" />
    <path
       id="path2988"
       d="m 31.708,25.708 c 0,0 0,0 0,0 L 22,16 31.708,6.292 c 0,0 0,0 0,0 0.105,-0.105 0.18,-0.227 0.229,-0.357 C 32.07,5.579 31.994,5.164 31.708,4.878 L 27.122,0.292 C 26.836,0.006 26.42,-0.069 26.065,0.063 c -0.13,0.048 -0.252,0.124 -0.357,0.228 0,0 0,0 0,0 L 16,9.999 6.292,0.291 c 0,0 0,0 0,0 C 6.187,0.187 6.065,0.111 5.935,0.063 5.579,-0.07 5.164,0.006 4.878,0.292 L 0.292,4.878 C 0.006,5.164 -0.069,5.58 0.063,5.935 c 0.049,0.13 0.124,0.252 0.229,0.357 0,0 0,0 0,0 L 10,16 0.292,25.708 c 0,0 0,0 0,0 -0.104,0.105 -0.18,0.227 -0.229,0.357 -0.133,0.355 -0.057,0.771 0.229,1.057 l 4.586,4.586 c 0.286,0.286 0.702,0.361 1.057,0.229 0.13,-0.049 0.252,-0.124 0.357,-0.229 0,0 0,0 0,0 L 16,22 l 9.708,9.708 c 0,0 0,0 0,0 0.105,0.105 0.227,0.18 0.357,0.229 0.356,0.133 0.771,0.057 1.057,-0.229 l 4.586,-4.586 c 0.286,-0.286 0.362,-0.702 0.229,-1.057 -0.049,-0.13 -0.124,-0.252 -0.229,-0.357 z"
       inkscape:connector-curvature="0"
       style="fill:#757575;fill-opacity:1" />
  </g>
</svg>
