<?xml version="1.0" encoding="UTF-8" standalone="no"?>
<!-- Generated by IcoMoon.io -->

<svg
   xmlns:dc="http://purl.org/dc/elements/1.1/"
   xmlns:cc="http://creativecommons.org/ns#"
   xmlns:rdf="http://www.w3.org/1999/02/22-rdf-syntax-ns#"
   xmlns:svg="http://www.w3.org/2000/svg"
   xmlns="http://www.w3.org/2000/svg"
   xmlns:sodipodi="http://sodipodi.sourceforge.net/DTD/sodipodi-0.dtd"
   xmlns:inkscape="http://www.inkscape.org/namespaces/inkscape"
   version="1.1"
   width="100"
   height="100"
   viewBox="0 0 100 100"
   id="svg2"
   inkscape:version="0.48.5 r10040"
   sodipodi:docname="font.svg">
  <metadata
     id="metadata11">
    <rdf:RDF>
      <cc:Work
         rdf:about="">
        <dc:format>image/svg+xml</dc:format>
        <dc:type
           rdf:resource="http://purl.org/dc/dcmitype/StillImage" />
        <dc:title />
      </cc:Work>
    </rdf:RDF>
  </metadata>
  <defs
     id="defs9" />
  <sodipodi:namedview
     pagecolor="#ffffff"
     bordercolor="#666666"
     borderopacity="1"
     objecttolerance="10"
     gridtolerance="10"
     guidetolerance="10"
     inkscape:pageopacity="0"
     inkscape:pageshadow="2"
     inkscape:window-width="1360"
     inkscape:window-height="705"
     id="namedview7"
     showgrid="true"
     inkscape:zoom="5.2149125"
     inkscape:cx="55.507767"
     inkscape:cy="44.007573"
     inkscape:window-x="-8"
     inkscape:window-y="-8"
     inkscape:window-maximized="1"
     inkscape:current-layer="svg2">
    <inkscape:grid
       type="xygrid"
       id="grid4139" />
  </sodipodi:namedview>
  <g
     id="icomoon-ignore"
     transform="translate(0,-412)" />
  <path
     d="m 76.551653,10.961412 c -8.352091,0 -13.711946,-1.2885748 -22.313329,-1.2885748 -27.796998,0 -40.760517,13.6413348 -40.760517,27.4976448 0,8.163144 4.48761,10.848734 13.337734,10.848734 -0.623504,-1.181723 -1.74504,-2.470933 -1.74504,-8.270948 0,-16.219282 7.104712,-20.945536 16.204493,-21.267681 0,0 -7.46564,63.075117 -29.134245,70.641198 l 0,1.961479 29.209529,0 9.966668,-40.705213 18.253446,0 4.066157,-10.176302 -19.827797,0 L 58.6012,20.62906 c 5.484594,0.96643 10.844634,1.933181 15.456801,1.933181 5.733887,0 10.969379,-1.50371 13.836319,-12.8894038 -3.489898,0.9667498 -7.229821,1.2885748 -11.342667,1.2885748 z"
     id="path5"
     inkscape:connector-curvature="0"
     style="fill:#757575;fill-opacity:1" />
</svg>
