<?xml version="1.0" encoding="UTF-8" standalone="no"?>
<!-- Generator: Adobe Illustrator 15.0.0, SVG Export Plug-In . SVG Version: 6.00 Build 0)  -->

<svg
   xmlns:dc="http://purl.org/dc/elements/1.1/"
   xmlns:cc="http://creativecommons.org/ns#"
   xmlns:rdf="http://www.w3.org/1999/02/22-rdf-syntax-ns#"
   xmlns:svg="http://www.w3.org/2000/svg"
   xmlns="http://www.w3.org/2000/svg"
   xmlns:sodipodi="http://sodipodi.sourceforge.net/DTD/sodipodi-0.dtd"
   xmlns:inkscape="http://www.inkscape.org/namespaces/inkscape"
   version="1.1"
   id="Layer_1"
   x="0px"
   y="0px"
   width="100"
   height="100"
   viewBox="0 0 100 100"
   enable-background="new 0 0 26 26"
   xml:space="preserve"
   inkscape:version="0.48.5 r10040"
   sodipodi:docname="highlight.svg"><metadata
     id="metadata13"><rdf:RDF><cc:Work
         rdf:about=""><dc:format>image/svg+xml</dc:format><dc:type
           rdf:resource="http://purl.org/dc/dcmitype/StillImage" /><dc:title /></cc:Work></rdf:RDF></metadata><defs
     id="defs11" /><sodipodi:namedview
     pagecolor="#ffffff"
     bordercolor="#666666"
     borderopacity="1"
     objecttolerance="10"
     gridtolerance="10"
     guidetolerance="10"
     inkscape:pageopacity="0"
     inkscape:pageshadow="2"
     inkscape:window-width="1360"
     inkscape:window-height="705"
     id="namedview9"
     showgrid="true"
     inkscape:zoom="3.2091769"
     inkscape:cx="70.954534"
     inkscape:cy="39.267887"
     inkscape:window-x="-8"
     inkscape:window-y="-8"
     inkscape:window-maximized="1"
     inkscape:current-layer="Layer_1"
     inkscape:snap-grids="false"><inkscape:grid
       type="xygrid"
       id="grid2990"
       empspacing="5"
       visible="true"
       enabled="true"
       snapvisiblegridlinesonly="true" /></sodipodi:namedview><g
     id="g3"
     transform="matrix(5.8847245,0,0,5.292241,-30.043872,-19.381755)"
     style="fill:#757575;fill-opacity:1"><path
       d="M 19.956,7.933 18.055,6.032 c -0.736,-0.736 -1.935,-0.736 -2.672,0 l -6.9,6.902 c -0.538,0.537 -0.681,1.318 -0.434,1.988 l -1.366,3.909 c -0.062,0.195 0.279,0.536 0.475,0.476 l 3.917,-1.363 c 0.667,0.242 1.445,0.096 1.979,-0.438 l 6.902,-6.902 c 0.736,-0.736 0.736,-1.935 0,-2.671 z m -1.461,2.318 -5.162,5.162 c -0.312,0.312 -0.838,0.292 -1.176,-0.046 L 10.62,13.83 c -0.336,-0.337 -0.356,-0.864 -0.045,-1.176 l 5.162,-5.162 c 0.312,-0.312 0.838,-0.291 1.175,0.045 l 1.537,1.538 c 0.337,0.338 0.358,0.865 0.046,1.176 z"
       id="path5"
       inkscape:connector-curvature="0"
       style="fill:#757575;fill-opacity:1" /><rect
       x="7.5500002"
       y="19.764999"
       width="8.1079998"
       height="1.096"
       id="rect7"
       style="fill:#757575;fill-opacity:1" /></g></svg>