<?xml version="1.0" encoding="utf-8"?>
<!-- Generator: Adobe Illustrator 16.0.0, SVG Export Plug-In . SVG Version: 6.00 Build 0)  -->
<!DOCTYPE svg PUBLIC "-//W3C//DTD SVG 1.1//EN" "http://www.w3.org/Graphics/SVG/1.1/DTD/svg11.dtd">
<svg version="1.1" id="Capa_1" xmlns="http://www.w3.org/2000/svg" xmlns:xlink="http://www.w3.org/1999/xlink" x="0px" y="0px"
	 width="48px" height="48px" viewBox="282 282 48 48" enable-background="new 282 282 48 48" xml:space="preserve">
<g>
	<path fill="#767676" d="M327.361,286.067v-0.07h-0.234h-42.278h-0.235v0.07c-1.383,0.095-2.415,1.195-2.579,2.531v0.235v27.859
		c0,0.54,0.14,0.995,0.375,1.406c0.54,0.95,1.337,1.43,2.439,1.43h15.43v3.894h-2.931c-0.727,0-1.29,0.564-1.29,1.289
		c0,0.727,0.563,1.291,1.29,1.291h17.282c0.727,0,1.314-0.564,1.314-1.291c0-0.725-0.588-1.289-1.314-1.289h-2.932v-3.894h15.43
		c1.104,0,1.908-0.479,2.439-1.43c0.242-0.431,0.398-0.892,0.398-1.406v-27.859v-0.235
		C329.801,287.263,328.699,286.162,327.361,286.067z M327.361,288.834v27.859c0,0.165-0.07,0.235-0.234,0.235h-42.278
		c-0.164,0-0.235-0.07-0.235-0.235v-27.859v-0.235h42.748V288.834L327.361,288.834z"/>
</g>
<path fill="#767676" d="M324.974,287.782h-38.058c-2.223,0-4.026,1.168-4.026,2.604v24.632c0,1.438,1.803,2.606,4.026,2.606h31.1
	L329,310.168v-19.781C329,288.951,327.194,287.782,324.974,287.782z M326.804,309.58l-0.455,0.295h-5.061
	c-1.613,0-3.726,1.715-3.726,2.759v3.275l-0.457,0.294h-30.19c-1.009,0-1.83-0.531-1.83-1.185l0.314-24.671h41.289L326.804,309.58z"
	/>
</svg>
