<?xml version="1.0" encoding="UTF-8" standalone="no"?>
<svg
   xmlns:dc="http://purl.org/dc/elements/1.1/"
   xmlns:cc="http://creativecommons.org/ns#"
   xmlns:rdf="http://www.w3.org/1999/02/22-rdf-syntax-ns#"
   xmlns:svg="http://www.w3.org/2000/svg"
   xmlns="http://www.w3.org/2000/svg"
   xmlns:sodipodi="http://sodipodi.sourceforge.net/DTD/sodipodi-0.dtd"
   xmlns:inkscape="http://www.inkscape.org/namespaces/inkscape"
   fill="#000000"
   height="48"
   viewBox="0 0 24 24"
   width="48"
   id="svg2"
   version="1.1"
   inkscape:version="0.48.5 r10040"
   sodipodi:docname="remove-underline.svg">
  <metadata
     id="metadata12">
    <rdf:RDF>
      <cc:Work
         rdf:about="">
        <dc:format>image/svg+xml</dc:format>
        <dc:type
           rdf:resource="http://purl.org/dc/dcmitype/StillImage" />
        <dc:title></dc:title>
      </cc:Work>
    </rdf:RDF>
  </metadata>
  <defs
     id="defs10" />
  <sodipodi:namedview
     pagecolor="#ffffff"
     bordercolor="#666666"
     borderopacity="1"
     objecttolerance="10"
     gridtolerance="10"
     guidetolerance="10"
     inkscape:pageopacity="0"
     inkscape:pageshadow="2"
     inkscape:window-width="1360"
     inkscape:window-height="705"
     id="namedview8"
     showgrid="false"
     inkscape:zoom="4.9166667"
     inkscape:cx="-0.30508475"
     inkscape:cy="24"
     inkscape:window-x="-8"
     inkscape:window-y="-8"
     inkscape:window-maximized="1"
     inkscape:current-layer="svg2" />
  <path
     d="M 0,-3.9661017 H 24 V 20.033898 H 0 z"
     id="path4"
     inkscape:connector-curvature="0"
     style="fill:none" />
  <path
     d="m 6.8686441,16.481839 c 3.1917859,0 5.7857139,-2.593928 5.7857139,-5.785713 V 2.9818405 h -2.410714 v 7.7142855 c 0,1.86107 -1.5139289,3.374999 -3.3749999,3.374999 -1.8610714,0 -3.375,-1.513929 -3.375,-3.374999 V 2.9818405 H 1.0829298 v 7.7142855 c 0,3.191785 2.5939286,5.785713 5.7857143,5.785713 z m -6.75000004,1.928572 v 1.928571 H 13.618644 V 18.410411 H 0.11864406 z"
     id="path6"
     style="fill:#757575;fill-opacity:1"
     inkscape:connector-curvature="0" />
  <path
     d="m 23.90103,18.565625 c 0,0 0,0 0,0 l -2.578409,-2.578407 2.578409,-2.578397 c 0,0 0,0 0,0 0.02786,-0.02767 0.04767,-0.06052 0.0609,-0.09506 0.0354,-0.09463 0.01513,-0.204767 -0.0609,-0.280731 l -1.218021,-1.217985 c -0.07606,-0.07607 -0.186459,-0.09609 -0.280752,-0.06089 -0.0347,0.0118 -0.06688,0.03287 -0.09502,0.06069 0,0 0,0 0,0 l -2.578406,2.578404 -2.578409,-2.578391 c 0,0 0,0 0,0 -0.02772,-0.0274 -0.06048,-0.04769 -0.09507,-0.06069 -0.09454,-0.03541 -0.204775,-0.01516 -0.280738,0.0609 l -1.218002,1.218039 c -0.07606,0.07606 -0.09611,0.186454 -0.06093,0.280726 0.01319,0.0348 0.03289,0.06687 0.06093,0.09499 0,0 0,0 0,0 l 2.578408,2.578396 -2.578408,2.578396 c 0,0 0,0 0,0 -0.02744,0.02794 -0.04765,0.06056 -0.06093,0.09509 -0.03539,0.09443 -0.01512,0.20478 0.06093,0.280733 l 1.218024,1.218045 c 0.07605,0.07607 0.186444,0.0961 0.280736,0.06092 0.03477,-0.01326 0.06687,-0.03285 0.09507,-0.06092 0,0 0,0 0,0 l 2.578406,-2.578409 2.578416,2.578409 c 0,0 0,0 0,0 0.0278,0.02764 0.06048,0.04767 0.09501,0.06092 0.09464,0.03541 0.204772,0.01513 0.280749,-0.06092 l 1.218014,-1.218062 c 0.07606,-0.07607 0.09629,-0.186439 0.0609,-0.280734 -0.01299,-0.03474 -0.03282,-0.06686 -0.0609,-0.09509 z"
     id="path7-8"
     inkscape:connector-curvature="0"
     style="fill:#757575;fill-opacity:1" />
</svg>
