<?xml version="1.0" encoding="UTF-8" standalone="no"?>
<svg
   xmlns:dc="http://purl.org/dc/elements/1.1/"
   xmlns:cc="http://creativecommons.org/ns#"
   xmlns:rdf="http://www.w3.org/1999/02/22-rdf-syntax-ns#"
   xmlns:svg="http://www.w3.org/2000/svg"
   xmlns="http://www.w3.org/2000/svg"
   xmlns:sodipodi="http://sodipodi.sourceforge.net/DTD/sodipodi-0.dtd"
   xmlns:inkscape="http://www.inkscape.org/namespaces/inkscape"
   fill="#000000"
   height="48"
   viewBox="0 0 24 24"
   width="48"
   id="svg2"
   version="1.1"
   inkscape:version="0.48.5 r10040"
   sodipodi:docname="remove-bold.svg">
  <metadata
     id="metadata12">
    <rdf:RDF>
      <cc:Work
         rdf:about="">
        <dc:format>image/svg+xml</dc:format>
        <dc:type
           rdf:resource="http://purl.org/dc/dcmitype/StillImage" />
      </cc:Work>
    </rdf:RDF>
  </metadata>
  <defs
     id="defs10" />
  <sodipodi:namedview
     pagecolor="#ffffff"
     bordercolor="#666666"
     borderopacity="1"
     objecttolerance="10"
     gridtolerance="10"
     guidetolerance="10"
     inkscape:pageopacity="0"
     inkscape:pageshadow="2"
     inkscape:window-width="1360"
     inkscape:window-height="705"
     id="namedview8"
     showgrid="false"
     inkscape:zoom="4.9166667"
     inkscape:cx="38.252375"
     inkscape:cy="27.006758"
     inkscape:window-x="-8"
     inkscape:window-y="-8"
     inkscape:window-maximized="1"
     inkscape:current-layer="svg2" />
  <path
     d="m 10.783054,11.894736 c 1.218152,-0.8414 2.072095,-2.2227977 2.072095,-3.5037298 0,-2.838141 -2.197677,-5.0232583 -5.0232569,-5.0232583 H -0.01694866 V 20.949152 H 8.8239865 c 2.6246395,0 4.6590645,-2.134888 4.6590645,-4.759535 0,-1.908835 -1.079982,-3.541397 -2.699997,-4.294881 z M 3.7504949,6.5072836 h 3.7674437 c 1.0423263,0 1.8837241,0.8413969 1.8837241,1.8837226 0,1.0423268 -0.8413978,1.8837258 -1.8837241,1.8837258 H 3.7504949 V 6.5072836 z M 8.1458454,17.80961 H 3.7504949 v -3.767449 h 4.3953505 c 1.0423256,0 1.8837246,0.841414 1.8837246,1.883729 0,1.042309 -0.841399,1.88372 -1.8837246,1.88372 z"
     id="path4"
     style="fill:#757575;fill-opacity:1"
     inkscape:connector-curvature="0" />
  <path
     d="M 0.10169492,-3.0508479 H 24.101695 V 20.949152 H 0.10169492 z"
     id="path6"
     inkscape:connector-curvature="0"
     style="fill:none" />
  <path
     d="m 24.184583,19.27749 c 0,0 0,0 0,0 l -2.578409,-2.578407 2.578409,-2.578397 c 0,0 0,0 0,0 0.02786,-0.02767 0.04767,-0.06052 0.0609,-0.09506 0.0354,-0.09463 0.01513,-0.204767 -0.0609,-0.280731 L 22.966562,12.52691 c -0.07606,-0.07607 -0.186459,-0.09609 -0.280752,-0.06089 -0.0347,0.0118 -0.06688,0.03287 -0.09502,0.06069 0,0 0,0 0,0 l -2.578406,2.578404 -2.578409,-2.578391 c 0,0 0,0 0,0 -0.02772,-0.0274 -0.06048,-0.04769 -0.09507,-0.06069 -0.09454,-0.03541 -0.204775,-0.01516 -0.280738,0.0609 l -1.218002,1.218039 c -0.07606,0.07606 -0.09611,0.186454 -0.06093,0.280726 0.01319,0.0348 0.03289,0.06687 0.06093,0.09499 0,0 0,0 0,0 l 2.578408,2.578396 -2.578408,2.578396 c 0,0 0,0 0,0 -0.02744,0.02794 -0.04765,0.06056 -0.06093,0.09509 -0.03539,0.09443 -0.01512,0.20478 0.06093,0.280733 l 1.218024,1.218045 c 0.07605,0.07607 0.186444,0.0961 0.280736,0.06092 0.03477,-0.01326 0.06687,-0.03285 0.09507,-0.06092 0,0 0,0 0,0 l 2.578406,-2.578409 2.578416,2.578409 c 0,0 0,0 0,0 0.0278,0.02764 0.06048,0.04767 0.09501,0.06092 0.09464,0.03541 0.204772,0.01513 0.280749,-0.06092 l 1.218014,-1.218062 c 0.07606,-0.07607 0.09629,-0.186439 0.0609,-0.280734 -0.01299,-0.03474 -0.03282,-0.06686 -0.0609,-0.09509 z"
     id="path7-8"
     inkscape:connector-curvature="0"
     style="fill:#757575;fill-opacity:1" />
</svg>
