<?xml version="1.0" encoding="UTF-8" standalone="no"?>
<!-- Generator: Adobe Illustrator 15.0.0, SVG Export Plug-In . SVG Version: 6.00 Build 0)  -->

<svg
   xmlns:dc="http://purl.org/dc/elements/1.1/"
   xmlns:cc="http://creativecommons.org/ns#"
   xmlns:rdf="http://www.w3.org/1999/02/22-rdf-syntax-ns#"
   xmlns:svg="http://www.w3.org/2000/svg"
   xmlns="http://www.w3.org/2000/svg"
   xmlns:sodipodi="http://sodipodi.sourceforge.net/DTD/sodipodi-0.dtd"
   xmlns:inkscape="http://www.inkscape.org/namespaces/inkscape"
   version="1.1"
   id="Layer_1"
   x="0px"
   y="0px"
   width="100"
   height="100"
   viewBox="0 0 100 100"
   enable-background="new 0 0 26 26"
   xml:space="preserve"
   inkscape:version="0.48.4 r9939"
   sodipodi:docname="highlight.svg"><metadata
     id="metadata13"><rdf:RDF><cc:Work
         rdf:about=""><dc:format>image/svg+xml</dc:format><dc:type
           rdf:resource="http://purl.org/dc/dcmitype/StillImage" /><dc:title></dc:title></cc:Work></rdf:RDF></metadata><defs
     id="defs11" /><sodipodi:namedview
     pagecolor="#ffffff"
     bordercolor="#666666"
     borderopacity="1"
     objecttolerance="10"
     gridtolerance="10"
     guidetolerance="10"
     inkscape:pageopacity="0"
     inkscape:pageshadow="2"
     inkscape:window-width="1360"
     inkscape:window-height="713"
     id="namedview9"
     showgrid="true"
     inkscape:zoom="3.2091769"
     inkscape:cx="65.501422"
     inkscape:cy="39.267887"
     inkscape:window-x="0"
     inkscape:window-y="30"
     inkscape:window-maximized="1"
     inkscape:current-layer="Layer_1"
     inkscape:snap-grids="false"><inkscape:grid
       type="xygrid"
       id="grid2990"
       empspacing="5"
       visible="true"
       enabled="true"
       snapvisiblegridlinesonly="true" /></sodipodi:namedview><g
     id="g3"
     transform="matrix(5.8847245,0,0,5.292241,-37.522425,-27.795127)"
     style="fill:#646464;fill-opacity:1"><path
       d="M 19.956,7.933 18.055,6.032 c -0.736,-0.736 -1.935,-0.736 -2.672,0 l -6.9,6.902 c -0.538,0.537 -0.681,1.318 -0.434,1.988 l -1.366,3.909 c -0.062,0.195 0.279,0.536 0.475,0.476 l 3.917,-1.363 c 0.667,0.242 1.445,0.096 1.979,-0.438 l 6.902,-6.902 c 0.736,-0.736 0.736,-1.935 0,-2.671 z m -1.461,2.318 -5.162,5.162 c -0.312,0.312 -0.838,0.292 -1.176,-0.046 L 10.62,13.83 c -0.336,-0.337 -0.356,-0.864 -0.045,-1.176 l 5.162,-5.162 c 0.312,-0.312 0.838,-0.291 1.175,0.045 l 1.537,1.538 c 0.337,0.338 0.358,0.865 0.046,1.176 z"
       id="path5"
       inkscape:connector-curvature="0"
       style="fill:#646464;fill-opacity:1" /><rect
       x="7.5500002"
       y="19.764999"
       width="8.1079998"
       height="1.096"
       id="rect7"
       style="fill:#646464;fill-opacity:1" /></g><path
     d="m 98.357021,89.974317 c 0,0 0,0 0,0 L 85.522391,77.252699 98.357021,64.531085 c 0,0 0,0 0,0 0.13882,-0.137626 0.23795,-0.297489 0.30275,-0.467824 0.17584,-0.466534 0.0753,-1.010345 -0.30275,-1.385122 l -6.063,-6.009615 c -0.37811,-0.374767 -0.92809,-0.473037 -1.39742,-0.300072 -0.17182,0.06293 -0.33321,0.162493 -0.47199,0.298781 0,0 0,0 0,0 L 77.589991,69.388841 64.755371,56.667219 c 0,0 0,0 0,0 -0.13883,-0.136288 -0.30012,-0.235897 -0.47199,-0.298781 -0.47069,-0.174257 -1.01932,-0.0747 -1.39742,0.30012 l -6.06301,6.00961 c -0.37811,0.374767 -0.47729,0.919917 -0.30275,1.385121 0.0648,0.170336 0.16393,0.330246 0.30275,0.467825 0,0 0,0 0,0 l 12.83463,12.721613 -12.83463,12.721618 c 0,0 0,0 0,0 -0.13748,0.137627 -0.23795,0.29749 -0.30275,0.467825 -0.17583,0.465195 -0.0753,1.010345 0.30275,1.385122 l 6.06301,6.009616 c 0.37807,0.374773 0.92808,0.473043 1.39742,0.300123 0.17182,-0.0642 0.33321,-0.162493 0.47199,-0.300123 0,0 0,0 0,0 l 12.83462,-12.721615 12.83462,12.721615 c 0,0 0,0 0,0 0.13878,0.13763 0.30012,0.2359 0.47199,0.300123 0.47069,0.17426 1.01931,0.0747 1.39742,-0.300123 l 6.063,-6.009616 c 0.37812,-0.374767 0.47857,-0.919917 0.30275,-1.385122 -0.0648,-0.170335 -0.16393,-0.330246 -0.30275,-0.467825 z"
     id="path7-8"
     inkscape:connector-curvature="0"
     style="fill:#646464;fill-opacity:1" /></svg>