<?xml version="1.0" encoding="UTF-8" standalone="no"?>
<svg
   xmlns:dc="http://purl.org/dc/elements/1.1/"
   xmlns:cc="http://creativecommons.org/ns#"
   xmlns:rdf="http://www.w3.org/1999/02/22-rdf-syntax-ns#"
   xmlns:svg="http://www.w3.org/2000/svg"
   xmlns="http://www.w3.org/2000/svg"
   xmlns:sodipodi="http://sodipodi.sourceforge.net/DTD/sodipodi-0.dtd"
   xmlns:inkscape="http://www.inkscape.org/namespaces/inkscape"
   fill="#000000"
   height="48"
   viewBox="0 0 24 24"
   width="48"
   id="svg2"
   version="1.1"
   inkscape:version="0.48.5 r10040"
   sodipodi:docname="remove-italic.svg">
  <metadata
     id="metadata12">
    <rdf:RDF>
      <cc:Work
         rdf:about="">
        <dc:format>image/svg+xml</dc:format>
        <dc:type
           rdf:resource="http://purl.org/dc/dcmitype/StillImage" />
        <dc:title></dc:title>
      </cc:Work>
    </rdf:RDF>
  </metadata>
  <defs
     id="defs10" />
  <sodipodi:namedview
     pagecolor="#ffffff"
     bordercolor="#666666"
     borderopacity="1"
     objecttolerance="10"
     gridtolerance="10"
     guidetolerance="10"
     inkscape:pageopacity="0"
     inkscape:pageshadow="2"
     inkscape:window-width="1360"
     inkscape:window-height="705"
     id="namedview8"
     showgrid="false"
     inkscape:zoom="4.9166667"
     inkscape:cx="52.169492"
     inkscape:cy="24"
     inkscape:window-x="-8"
     inkscape:window-y="-8"
     inkscape:window-maximized="1"
     inkscape:current-layer="svg2" />
  <path
     d="M0 0h24v24H0z"
     fill="none"
     id="path4" />
  <path
     d="m 6.3305078,3.978816 v 3.3750003 h 2.48625 L 4.969258,16.353814 H 1.8305085 v 3.375 h 8.9999975 v -3.375 H 8.3442574 L 12.191759,7.3538163 h 3.13875 V 3.978816 z"
     id="path6"
     style="fill:#757575;fill-opacity:1"
     inkscape:connector-curvature="0" />
  <path
     d="m 23.015483,18.057191 c 0,0 0,0 0,0 l -2.578436,-2.578439 2.578436,-2.578424 c 0,0 0,0 0,0 0.02791,-0.0277 0.04768,-0.06047 0.06087,-0.09505 0.03538,-0.09459 0.01512,-0.204768 -0.06087,-0.280733 l -1.218033,-1.218 c -0.07603,-0.07604 -0.186462,-0.09611 -0.280756,-0.06086 -0.03475,0.01179 -0.06692,0.03291 -0.095,0.06065 0,0 0,0 0,0 l -2.578435,2.578431 -2.578437,-2.578417 c 0,0 0,0 0,0 -0.02776,-0.02742 -0.06046,-0.0477 -0.09506,-0.06065 -0.09449,-0.03539 -0.204781,-0.01515 -0.280742,0.06087 l -1.218024,1.218047 c -0.07603,0.07603 -0.09607,0.186456 -0.06091,0.280729 0.01316,0.03481 0.03293,0.06691 0.06091,0.09497 0,0 0,0 0,0 l 2.578438,2.578424 -2.578438,2.578428 c 0,0 0,0 0,0 -0.02746,0.02794 -0.04765,0.06051 -0.06091,0.09508 -0.03537,0.09438 -0.01511,0.204779 0.06091,0.280733 l 1.21804,1.21806 c 0.07602,0.07604 0.186441,0.09607 0.280739,0.0609 0.03477,-0.01323 0.06691,-0.03289 0.09506,-0.0609 0,0 0,0 0,0 l 2.578437,-2.578438 2.578443,2.578438 c 0,0 0,0 0,0 0.02784,0.02767 0.06045,0.04768 0.09499,0.0609 0.0946,0.03539 0.204776,0.01512 0.280753,-0.0609 l 1.218026,-1.218074 c 0.07603,-0.07604 0.09624,-0.186442 0.06087,-0.280734 -0.01294,-0.0348 -0.03286,-0.0669 -0.06087,-0.09508 z"
     id="path7-8"
     inkscape:connector-curvature="0"
     style="fill:#757575;fill-opacity:1" />
</svg>
