<?xml version="1.0" encoding="UTF-8" standalone="no"?>
<svg
   xmlns:dc="http://purl.org/dc/elements/1.1/"
   xmlns:cc="http://creativecommons.org/ns#"
   xmlns:rdf="http://www.w3.org/1999/02/22-rdf-syntax-ns#"
   xmlns:svg="http://www.w3.org/2000/svg"
   xmlns="http://www.w3.org/2000/svg"
   xmlns:sodipodi="http://sodipodi.sourceforge.net/DTD/sodipodi-0.dtd"
   xmlns:inkscape="http://www.inkscape.org/namespaces/inkscape"
   version="1.1"
   width="100"
   height="100"
   viewBox="0 0 100 100"
   id="svg2"
   inkscape:version="0.48.5 r10040"
   sodipodi:docname="ruler.svg">
  <metadata
     id="metadata10">
    <rdf:RDF>
      <cc:Work
         rdf:about="">
        <dc:format>image/svg+xml</dc:format>
        <dc:type
           rdf:resource="http://purl.org/dc/dcmitype/StillImage" />
        <dc:title />
      </cc:Work>
    </rdf:RDF>
  </metadata>
  <defs
     id="defs8" />
  <sodipodi:namedview
     pagecolor="#ffffff"
     bordercolor="#666666"
     borderopacity="1"
     objecttolerance="10"
     gridtolerance="10"
     guidetolerance="10"
     inkscape:pageopacity="0"
     inkscape:pageshadow="2"
     inkscape:window-width="1360"
     inkscape:window-height="705"
     id="namedview6"
     showgrid="true"
     inkscape:zoom="2.4583333"
     inkscape:cx="-19.86441"
     inkscape:cy="48.411989"
     inkscape:window-x="-8"
     inkscape:window-y="-8"
     inkscape:window-maximized="1"
     inkscape:current-layer="svg2">
    <inkscape:grid
       type="xygrid"
       id="grid4138" />
  </sodipodi:namedview>
  <path
     d="M 69.885421,0.560051 0.89376334,69.551709 29.302105,97.960051 98.293765,28.968391 69.885421,0.560051 z M 9.4162633,69.551709 14.97617,63.991801 l 7.305,7.313108 4.301843,-4.30995 -7.305,-7.313108 7.0615,-7.053391 13.3925,13.392499 4.305925,-4.30995 -13.3925,-13.388496 6.854482,-6.854462 7.102093,7.102092 4.305925,-4.305854 -7.102157,-7.102161 6.854574,-6.854486 13.392502,13.392501 4.301814,-4.301842 -13.3925,-13.3925 7.053393,-7.057467 7.313107,7.304999 4.30995,-4.305876 -7.313107,-7.305 5.559907,-5.559906 19.885842,19.88584 L 29.302105,89.437551 9.4162633,69.551709 z"
     id="path3"
     inkscape:connector-curvature="0"
     style="fill:#757575;fill-opacity:1" />
</svg>
