<?xml version="1.0" encoding="utf-8"?>
<!-- Generator: Adobe Illustrator 16.0.0, SVG Export Plug-In . SVG Version: 6.00 Build 0)  -->
<!DOCTYPE svg PUBLIC "-//W3C//DTD SVG 1.1//EN" "http://www.w3.org/Graphics/SVG/1.1/DTD/svg11.dtd">
<svg version="1.1" id="Capa_1" xmlns="http://www.w3.org/2000/svg" xmlns:xlink="http://www.w3.org/1999/xlink" x="0px" y="0px"
	 width="48px" height="48px" viewBox="256 456 48 48" enable-background="new 256 456 48 48" xml:space="preserve">
<g>
	<path fill="#767676" stroke="#767676" stroke-miterlimit="10" d="M302.235,461.508h-44.471c-0.621,0-1.123,0.502-1.123,1.123
		v34.738c0,0.619,0.502,1.123,1.123,1.123h44.471c0.62,0,1.123-0.504,1.123-1.123v-34.738
		C303.358,462.01,302.855,461.508,302.235,461.508z M301.112,463.754v5.166h-42.225v-5.166H301.112z M258.888,496.246v-25.081
		h42.225v25.081H258.888z"/>
	<path fill="#767676" stroke="#767676" stroke-miterlimit="10" d="M280,475.236c-8.785,0-15.36,6.783-15.636,7.071
		c-0.415,0.435-0.415,1.116,0,1.55c0.275,0.289,6.851,7.072,15.636,7.072c8.784,0,15.36-6.783,15.637-7.072
		c0.413-0.434,0.413-1.115,0-1.55C295.36,482.02,288.784,475.236,280,475.236z M280,487.594c-2.471,0-4.481-2.023-4.481-4.511
		s2.01-4.511,4.481-4.511s4.481,2.023,4.481,4.511S282.471,487.594,280,487.594z M275.36,478.198
		c-1.284,1.231-2.087,2.966-2.087,4.885c0,1.921,0.803,3.653,2.087,4.886c-3.99-1.207-7.121-3.637-8.541-4.886
		C268.239,481.836,271.37,479.404,275.36,478.198z M284.64,487.969c1.284-1.232,2.088-2.965,2.088-4.886
		c0-1.919-0.804-3.654-2.088-4.885c3.991,1.207,7.121,3.638,8.542,4.885C291.761,484.332,288.63,486.762,284.64,487.969z"/>
	<path fill="#767676" stroke="#767676" stroke-miterlimit="10" d="M280,480.702c-1.302,0-2.362,1.067-2.362,2.381
		c0,1.312,1.06,2.382,2.362,2.382s2.361-1.07,2.361-2.382C282.361,481.77,281.302,480.702,280,480.702z"/>
	<path fill="#767676" stroke="#767676" stroke-miterlimit="10" d="M262.706,467.422c0.296,0,0.585-0.12,0.795-0.33
		c0.208-0.209,0.328-0.498,0.328-0.793s-0.12-0.586-0.328-0.794c-0.21-0.21-0.499-0.329-0.795-0.329
		c-0.295,0-0.585,0.119-0.794,0.329c-0.209,0.208-0.329,0.497-0.329,0.794c0,0.296,0.119,0.585,0.329,0.793
		C262.122,467.302,262.411,467.422,262.706,467.422z"/>
	<path fill="#767676" stroke="#767676" stroke-miterlimit="10" d="M267.646,467.422c0.297,0,0.585-0.12,0.795-0.33
		c0.208-0.209,0.328-0.498,0.328-0.793s-0.12-0.586-0.328-0.794c-0.209-0.21-0.498-0.329-0.795-0.329
		c-0.295,0-0.585,0.119-0.793,0.329c-0.21,0.208-0.33,0.497-0.33,0.794c0,0.296,0.12,0.585,0.33,0.793
		C267.063,467.302,267.352,467.422,267.646,467.422z"/>
	<path fill="#767676" stroke="#767676" stroke-miterlimit="10" d="M272.587,467.422c0.297,0,0.586-0.12,0.796-0.33
		c0.208-0.209,0.328-0.498,0.328-0.793s-0.12-0.586-0.328-0.794c-0.21-0.21-0.499-0.329-0.796-0.329
		c-0.295,0-0.585,0.119-0.793,0.329c-0.21,0.208-0.33,0.497-0.33,0.794c0,0.296,0.12,0.585,0.33,0.793
		C272.004,467.302,272.292,467.422,272.587,467.422z"/>
</g>
</svg>
